<svg xmlns="http://www.w3.org/2000/svg" viewBox="0 0 2076 268" fill="currentColor">
<g transform="translate(0,268) scale(0.1,-0.1)" stroke="none">
<path d="M2456 2659 c-189 -28 -440 -132 -592 -247 -144 -109 -280 -265 -376
-432 -79 -137 -144 -356 -155 -522 l-6 -98 -664 0 -663 0 0 -46 c0 -81 30
-255 62 -354 147 -460 523 -799 1001 -902 82 -17 134 -22 267 -21 175 0 248
11 405 60 395 124 727 457 854 855 59 188 61 212 61 1001 l0 717 -67 -1 c-38
-1 -94 -5 -127 -10z m-389 -729 c61 -27 85 -70 80 -142 -2 -44 -9 -64 -28 -84
-53 -57 -127 -70 -187 -34 -66 41 -90 124 -56 196 19 41 33 52 81 70 50 17 60
17 110 -6z M5769 2641 l-29 -29 0 -144 c0 -95 5 -151 13 -168 20 -40 75 -52
214 -48 119 3 123 4 150 31 l28 27 0 156 0 156 -28 24 c-27 23 -34 24 -173 24
l-146 0 -29 -29z M16713 2655 c-32 -22 -43 -75 -43 -198 0 -182 15 -200 177
-206 136 -4 178 3 209 34 23 23 24 29 24 180 0 152 -1 156 -25 180 -23 24 -28
25 -172 25 -117 0 -153 -3 -170 -15z M15633 2485 c-17 -7 -36 -22 -42 -34 -15
-27 -15 -2160 -1 -2213 17 -60 69 -119 135 -153 l59 -30 259 -3 c344 -5 347
-4 347 153 0 158 -10 164 -288 164 l-192 1 2 623 3 622 233 5 c287 6 272 -2
272 156 0 94 -2 105 -24 131 l-24 28 -231 3 -231 3 0 240 c0 274 -4 291 -68
308 -52 15 -171 13 -209 -4z M4427 1970 c-152 -26 -285 -87 -373 -172 -102
-97 -154 -220 -154 -359 0 -50 4 -64 25 -84 23 -24 30 -25 138 -25 141 0 153
7 167 95 14 85 46 142 104 182 78 54 141 68 301 68 120 0 149 -3 206 -23 81
-28 139 -76 169 -139 18 -38 24 -71 28 -155 5 -125 0 -156 -32 -167 -12 -5
-159 -19 -327 -31 -326 -23 -393 -30 -479 -56 -129 -38 -251 -127 -307 -222
-61 -104 -82 -284 -48 -412 56 -210 231 -373 462 -427 97 -23 330 -25 413 -4
125 31 244 101 304 178 19 24 36 40 39 36 2 -4 8 -39 12 -76 5 -50 13 -75 30
-95 23 -26 26 -27 134 -27 100 0 112 2 132 22 22 22 22 22 11 215 -7 106 -12
411 -12 678 0 540 -3 571 -64 695 -80 162 -243 268 -468 305 -73 11 -341 11
-411 0z m613 -1154 c0 -188 -29 -283 -114 -374 -85 -91 -202 -135 -356 -136
-246 -1 -404 119 -405 309 0 97 29 155 97 194 65 37 111 45 433 76 149 14 284
29 300 34 17 5 33 10 38 10 4 1 7 -50 7 -113z M8610 1965 c-91 -19 -166 -47
-262 -96 -64 -33 -103 -64 -173 -134 -178 -178 -259 -382 -272 -680 -22 -518
208 -885 634 -1011 70 -21 117 -27 230 -31 209 -8 344 19 495 99 79 41 202
158 248 234 74 123 102 274 61 325 -18 23 -25 24 -141 24 -141 0 -147 -3 -175
-103 -23 -81 -70 -146 -139 -192 -74 -50 -137 -70 -251 -77 -296 -19 -515 131
-595 407 -31 107 -39 344 -15 461 46 231 175 390 363 450 93 29 255 36 345 15
164 -39 251 -117 296 -266 28 -90 45 -100 171 -100 95 0 142 14 154 45 13 34
5 122 -17 186 -54 157 -180 296 -339 373 -51 25 -120 52 -153 61 -83 23 -375
30 -465 10z M10466 1964 c-302 -65 -531 -270 -632 -566 -46 -136 -58 -222 -58
-408 1 -140 5 -193 22 -266 45 -197 121 -344 241 -464 173 -173 366 -250 631
-250 268 0 485 89 648 265 152 166 234 379 248 650 29 542 -241 945 -699 1039
-96 20 -307 20 -401 0z m332 -309 c105 -25 170 -62 247 -139 80 -81 124 -156
157 -271 20 -70 23 -102 23 -250 -1 -192 -11 -247 -72 -375 -45 -93 -150 -202
-235 -243 -278 -133 -603 -24 -733 248 -57 118 -78 240 -72 410 6 156 21 223
73 333 41 85 128 183 206 229 108 65 275 89 406 58z M14280 1966 c-154 -33
-270 -95 -362 -194 -96 -104 -138 -218 -138 -375 0 -141 36 -241 118 -330 110
-118 213 -158 562 -217 280 -48 348 -68 400 -120 54 -54 68 -165 31 -246 -56
-123 -266 -191 -508 -164 -195 21 -296 93 -318 225 -21 125 -34 135 -173 135
-101 0 -104 -1 -133 -29 -26 -26 -29 -36 -29 -93 0 -193 113 -369 293 -458
148 -73 210 -84 462 -84 196 0 229 3 299 22 133 37 222 86 302 166 114 114
154 220 154 406 0 190 -69 320 -222 416 -80 51 -193 83 -456 130 -141 26 -281
55 -310 66 -102 38 -142 93 -142 195 1 177 166 277 430 260 206 -14 308 -82
346 -230 24 -96 34 -102 164 -102 101 0 110 2 134 24 33 31 40 70 27 150 -33
207 -202 371 -451 436 -88 24 -388 30 -480 11z M18060 1960 c-337 -71 -571
-308 -662 -667 -20 -77 -23 -114 -23 -298 0 -184 3 -221 23 -298 92 -367 337
-605 689 -673 100 -19 304 -18 401 2 280 57 495 243 557 480 24 95 21 138 -16
168 -29 24 -37 26 -133 26 -129 0 -145 -10 -175 -109 -26 -85 -69 -144 -141
-193 -138 -94 -387 -103 -564 -20 -76 36 -165 116 -210 190 -101 166 -132 446
-76 668 71 277 271 433 556 434 234 0 392 -101 440 -282 22 -85 44 -98 169
-98 97 0 105 2 134 26 26 21 31 33 31 68 0 121 -70 268 -180 376 -115 113
-231 174 -398 206 -104 20 -316 17 -422 -6z M19790 1966 c-206 -43 -368 -155
-445 -307 -73 -144 -74 -363 -3 -503 28 -55 103 -133 172 -178 84 -54 176 -80
454 -128 333 -57 395 -80 433 -164 47 -104 7 -239 -89 -300 -137 -86 -452 -96
-603 -20 -84 42 -125 106 -144 226 -3 20 -14 47 -24 60 -18 21 -28 23 -128 26
-106 4 -110 3 -141 -23 -30 -25 -32 -31 -32 -94 0 -203 110 -372 303 -465 141
-68 214 -81 457 -81 183 0 214 3 290 23 138 38 225 85 306 166 110 111 154
223 154 396 0 52 -5 115 -11 139 -39 169 -178 299 -384 360 -38 11 -176 39
-305 62 -129 23 -259 50 -288 61 -102 38 -142 93 -142 195 1 177 167 277 430
260 204 -14 321 -93 345 -235 4 -24 17 -55 30 -70 23 -26 27 -27 128 -27 91 0
109 3 133 21 37 27 45 64 34 149 -29 207 -197 372 -450 440 -87 23 -386 30
-480 11z M5834 1931 c-57 -24 -54 22 -54 -938 l0 -882 24 -28 c23 -27 28 -28
128 -31 122 -3 163 13 173 70 3 18 4 423 3 900 l-3 867 -23 23 c-20 21 -33 23
-125 25 -56 2 -112 -1 -123 -6z M11923 1930 c-56 -23 -54 -2 -51 -701 4 -633
4 -645 26 -723 39 -133 94 -231 181 -316 128 -127 270 -180 475 -180 202 0
341 49 461 162 l65 60 0 -64 c0 -56 3 -68 26 -89 23 -21 36 -24 120 -27 109
-4 148 7 169 49 22 42 22 1746 1 1788 -21 40 -56 51 -161 51 -85 0 -96 -2
-123 -25 l-30 -25 -5 -568 c-5 -621 -6 -640 -66 -768 -79 -169 -247 -250 -463
-223 -168 21 -270 109 -321 278 -19 62 -21 103 -26 674 l-6 609 -28 24 c-26
22 -37 24 -125 23 -53 0 -107 -4 -119 -9z M16761 1926 c-52 -29 -50 2 -51
-929 0 -951 -3 -911 59 -937 19 -7 64 -11 125 -8 89 3 98 5 123 31 l28 27 0
886 0 886 -33 29 c-31 28 -36 29 -130 29 -61 -1 -106 -6 -121 -14z M6560 1247
c-38 -19 -50 -54 -50 -145 0 -94 16 -137 56 -152 15 -6 222 -10 500 -10 l476
0 29 29 c28 29 29 32 29 131 0 99 -1 102 -29 131 l-29 29 -479 0 c-363 0 -484
-3 -503 -13z"/>
</g>
</svg>
