<svg xmlns="http://www.w3.org/2000/svg" viewBox="0 72 193 42">
  <path fill="#000" d="M3.236 75.301h8.03c4.417 0 6.022.401 8.03 2.81 1.204 1.205 1.605 2.811 1.605 4.416 0 2.008-.803 3.614-3.212 4.818 4.417 1.605 4.417 5.219 4.417 6.423 0 2.007-.803 4.417-2.409 5.62-2.409 2.008-3.613 2.41-8.029 2.41H3.236V75.301zm6.826 10.037h2.007c.803 0 2.409 0 2.409-2.008 0-2.007-1.606-2.007-2.409-2.007h-2.007v4.015zm0 10.438h2.81c.803 0 2.811 0 2.811-2.409s-2.008-2.409-2.811-2.409h-2.81v4.818zM23.711 75.301h6.022v26.498h-6.022V75.301zM42.179 81.323c7.227 0 10.438 5.621 10.438 10.438s-3.211 10.84-10.438 10.84-10.84-6.023-10.84-10.84 3.614-10.438 10.84-10.438zm0 15.657c2.409 0 4.416-2.007 4.416-5.219 0-2.811-2.007-4.817-4.416-4.817-2.811 0-4.817 2.007-4.817 4.817 0 3.212 2.007 5.219 4.817 5.219zM64.662 81.323c7.227 0 10.84 5.621 10.84 10.438s-3.613 10.84-10.84 10.84-10.84-6.023-10.84-10.84 3.613-10.438 10.84-10.438zm0 15.657c2.409 0 4.817-2.007 4.817-5.219 0-2.811-2.409-4.817-4.817-4.817s-4.817 2.007-4.817 4.817c-.001 3.212 2.408 5.219 4.817 5.219zM76.706 82.125h5.621v2.008c.401-.803 2.007-2.811 5.621-2.811 1.606 0 4.015.803 5.621 3.613 1.204-2.007 3.211-3.613 6.424-3.613 1.203 0 3.613.401 5.219 2.007 1.605 2.008 2.006 3.212 2.006 7.628v10.84h-6.021V91.36c0-1.606 0-4.416-2.811-4.416-3.613 0-3.613 2.81-3.613 4.015v10.84h-5.621v-10.84c0-.803 0-4.015-3.211-4.015-3.212 0-3.212 3.211-3.212 4.416v10.439h-6.022V82.125h-.001zM109.627 75.301h6.021v8.431c2.008-2.409 4.818-2.409 5.621-2.409 4.416 0 10.037 2.811 10.037 10.438 0 7.227-5.219 10.84-10.037 10.84-2.811 0-4.818-1.605-5.621-2.811h-.4v2.008h-5.621V75.301zm10.84 21.679c2.811 0 4.816-2.409 4.816-5.219 0-2.409-2.006-4.817-4.816-4.817-3.213 0-4.818 2.409-4.818 4.817-.001 2.811 1.605 5.219 4.818 5.219zM153.387 95.776c-1.203 2.007-2.408 3.613-4.014 4.818-2.008 1.205-3.613 2.008-6.023 2.008-5.619 0-10.438-4.818-10.438-10.84 0-5.219 4.416-10.438 10.438-10.438 6.023 0 10.439 4.818 10.439 10.84v1.606h-14.855c.402 2.409 2.41 3.614 4.416 3.614 2.008 0 2.811-.805 3.613-1.607h6.424v-.001zm-5.219-6.022c-.4-1.205-1.605-3.613-4.818-3.613-2.809 0-4.014 2.409-4.416 3.613h9.234zM156.197 82.125h5.621v2.008c.803-.401 3.211-2.409 5.621-2.008v5.621c-2.41 0-5.219 0-5.219 3.212v10.84h-6.023V82.125zM189.922 99.389c0 2.811-.402 6.826-1.205 8.432-1.605 2.408-5.219 4.816-10.037 4.014-6.824-.4-8.832-3.613-9.234-6.824h6.424c.803 2.008 2.811 2.008 3.213 2.008 3.211 0 4.816-.402 4.816-6.826v-.4c-.803.803-2.408 2.811-5.619 2.811-5.221 0-10.037-4.416-10.037-10.439 0-6.825 4.816-10.84 10.037-10.84 2.408 0 4.416.803 5.619 2.409v-1.606h6.023v17.261zm-10.84-2.409c2.811 0 4.816-2.007 4.816-4.818 0-3.212-2.006-5.219-4.816-5.219-2.41 0-4.818 2.007-4.818 4.817 0 3.213 2.408 5.22 4.818 5.22z"/>
</svg>
