<?xml version="1.0" encoding="UTF-8"?>
<svg xmlns="http://www.w3.org/2000/svg" viewBox="350 440 1200 230">
  <g fill="#ffffff">
    <path d="M734.35,498.71c-18.58,0-36.63,16.19-36.63,46.72,0,32.65,21.23,52.82,44.33,52.82,14.6,0,28.4-7.7,37.96-23.36l5.84,7.7c-10.62,23.09-29.73,35.83-52.82,35.83-35.83,0-56.27-31.32-56.27-64.76s22.03-67.42,63.44-67.42c14.86,0,29.2,3.98,43.26,12.21l-11.68,35.3h-9.82c.26-1.33.26-2.65.26-4.25,0-19.38-12.74-30.79-27.87-30.79Z"/>
    <path d="M860.16,618.42c-37.42,0-61.05-29.2-61.05-65.56s25.48-66.62,62.91-66.62,61.05,29.2,61.05,65.83-25.75,66.36-62.91,66.36ZM859.1,498.71c-21.5,0-34.51,20.97-34.51,50.7s14.33,57.07,38.22,57.07c21.5,0,34.77-20.97,34.77-50.7s-14.33-57.07-38.49-57.07Z"/>
    <path d="M928.7,606.21l21.5-7.17v-86.53l-20.97-9.82v-5.31l40.61-11.15v26.81l26.28-24.42c6.64-1.59,12.74-2.39,18.05-2.39,25.75,0,41.41,16.72,41.41,46.18v69.81l21.5,3.19v10.09h-64.5v-9.29l21.5-7.17v-62.91c0-19.91-10.88-29.73-26.01-29.73-12.47,0-26.01,6.9-36.36,17.78v78.04l21.5,3.19v10.09h-64.5v-9.29Z"/>
    <path d="M1168.87,489.42v-36.36l-20.17-9.55v-5.57l41.94-11.15v168.28l20.17,3.18v9.29l-39.55,10.88v-24.15l-29.73,22.83c-4.51.8-8.23,1.33-11.68,1.33-26.28,0-50.17-21.5-50.17-59.72s26.28-72.46,66.09-72.46c7.43,0,15.13,1.06,23.09,3.18ZM1168.87,512.25c-7.17-7.17-16.99-11.68-29.46-11.68-25.75,0-39.55,24.68-39.55,49.37s13.54,46.98,35.57,46.98c12.48,0,26.01-6.9,33.44-16.46v-68.21Z"/>
    <path d="M1333.3,597.19l20.17,5.04v8.49l-37.96,7.7v-27.87l-27.34,25.22c-5.04,1.86-10.35,2.65-15.93,2.65-27.6,0-40.61-18.05-40.61-47.51v-66.36l-21.5-6.1v-9.82h43v79.63c0,19.91,9.82,29.73,23.89,29.73,10.88,0,23.89-6.64,34.77-17.52v-75.91l-21.5-6.1v-9.82h43v108.56Z"/>
    <path d="M1418.68,498.71c-18.58,0-36.63,16.19-36.63,46.72,0,32.65,21.23,52.82,44.33,52.82,14.6,0,28.4-7.7,37.96-23.36l5.84,7.7c-10.62,23.09-29.73,35.83-52.82,35.83-35.83,0-56.27-31.32-56.27-64.76s22.03-67.42,63.44-67.42c14.86,0,29.2,3.98,43.26,12.21l-11.68,35.3h-9.82c.26-1.33.26-2.65.26-4.25,0-19.38-12.74-30.79-27.87-30.79Z"/>
    <path d="M1524.2,576.75c0,16.72,6.9,24.95,20.7,24.95,4.25,0,10.35-1.06,18.05-2.92v10.88c-7.17,5.31-18.05,8.76-27.87,8.76-18.85,0-32.38-10.88-32.38-35.57v-81.22h-27.87v-9.56l27.87-7.7v-26.01l21.5-6.37v36.63h37.16v14.07h-37.16v74.05Z"/>
  </g>
  <rect x="455.19" y="634.6" width="146.92" height="18.4" fill="#ffffff" opacity="0.8"/>
  <rect x="391.98" y="588.82" width="146.92" height="18.4" fill="#ffffff" opacity="0.8"/>
  <rect x="361.43" y="543.04" width="148.48" height="18.4" fill="#ffffff" opacity="0.8"/>
  <rect x="392.36" y="497.26" width="148.48" height="18.4" fill="#ffffff" opacity="0.8"/>
  <rect x="456.99" y="451.49" width="143.76" height="18.4" fill="#ffffff" opacity="0.8"/>
</svg>
