<svg width="101" height="16" viewBox="0 0 101 16" fill="none" xmlns="http://www.w3.org/2000/svg">
<path d="M17.7891 13.9635C18.0646 13.9635 18.288 14.1874 18.288 14.4635V15.5C18.288 15.7761 18.0646 16 17.7891 16H7.75619C7.48064 16 7.25726 15.7761 7.25726 15.5V14.4635C7.2573 14.1874 7.48067 13.9635 7.75619 13.9635H17.7891Z" fill="#ffffff"/>
<path d="M30.9751 0.213216C32.2381 0.213216 33.331 0.447985 34.2535 0.917318C35.1901 1.38663 35.921 1.99098 36.4461 2.73047C36.9425 3.39812 37.2826 4.11421 37.4664 4.87826C37.4909 4.98067 37.412 5.07714 37.3069 5.07715H34.8899C34.8156 5.07715 34.7506 5.02774 34.7274 4.95703C34.5162 4.31145 34.11 3.75406 33.5084 3.28516C32.884 2.78741 32.0608 2.53876 31.039 2.53874C30.145 2.53874 29.3502 2.75904 28.6548 3.19987C27.9594 3.62652 27.4128 4.25229 27.0154 5.07715C26.6322 5.88782 26.4408 6.86222 26.4408 8C26.4408 9.13776 26.6323 10.1191 27.0154 10.944C27.4128 11.7547 27.9594 12.3804 28.6548 12.8213C29.3502 13.2479 30.145 13.4613 31.039 13.4613C32.0608 13.4612 32.884 13.2123 33.5084 12.7145C34.1099 12.2457 34.5162 11.6885 34.7274 11.043C34.7506 10.9723 34.8156 10.9225 34.8899 10.9225H37.3069C37.412 10.9225 37.491 11.0193 37.4664 11.1217C37.2826 11.8869 36.9425 12.6099 36.4461 13.2907C35.921 14.016 35.1901 14.6134 34.2535 15.0827C33.331 15.552 32.2381 15.7868 30.9751 15.7868C29.5417 15.7868 28.2645 15.4737 27.1434 14.848C26.0365 14.2222 25.1705 13.3191 24.5461 12.1387C23.9217 10.9582 23.6096 9.57865 23.6096 8C23.6096 6.43558 23.9358 5.07018 24.5887 3.90397C25.2557 2.72353 26.1499 1.81318 27.2711 1.17318C28.3922 0.533218 29.6269 0.213218 30.9751 0.213216Z" fill="#ffffff"/>
<path fill-rule="evenodd" clip-rule="evenodd" d="M43.5858 4.24544C44.6218 4.24544 45.5658 4.49408 46.4173 4.99186C47.2688 5.47542 47.9357 6.15827 48.4182 7.04004C48.9007 7.92181 49.1419 8.91738 49.1419 10.0267C49.1419 11.1218 48.9007 12.1101 48.4182 12.9919C47.9357 13.8736 47.2687 14.5634 46.4173 15.0612C45.5658 15.5448 44.6218 15.7868 43.5858 15.7868C42.5356 15.7868 41.5849 15.5447 40.7335 15.0612C39.882 14.5634 39.2147 13.8736 38.7322 12.9919C38.2497 12.1101 38.0085 11.1217 38.0085 10.0267C38.0085 8.9174 38.2497 7.92179 38.7322 7.04004C39.2147 6.15826 39.882 5.47542 40.7335 4.99186C41.5849 4.49416 42.5357 4.24547 43.5858 4.24544ZM43.5858 6.31478C42.9756 6.3148 42.4433 6.45679 41.9892 6.74121C41.5494 7.02563 41.2089 7.45236 40.9677 8.02116C40.7264 8.57583 40.6055 9.24447 40.6055 10.0267C40.6055 10.8089 40.7264 11.4773 40.9677 12.0319C41.2089 12.5865 41.5494 13.0132 41.9892 13.3118C42.4433 13.5963 42.9756 13.7386 43.5858 13.7386C44.1818 13.7386 44.7001 13.5963 45.1401 13.3118C45.5941 13.0132 45.9418 12.5865 46.1831 12.0319C46.4243 11.4773 46.5449 10.8089 46.5449 10.0267C46.5449 9.24447 46.4243 8.57583 46.1831 8.02116C45.9418 7.45234 45.5941 7.02564 45.1401 6.74121C44.7001 6.45677 44.1818 6.31478 43.5858 6.31478Z" fill="#ffffff"/>
<path fill-rule="evenodd" clip-rule="evenodd" d="M71.4733 0.533203C71.5651 0.533266 71.6396 0.6079 71.6397 0.69987V15.2998C71.6397 15.3918 71.5651 15.4664 71.4733 15.4665H69.2512C69.1594 15.4664 69.0849 15.3918 69.0849 15.2998V14.7178C69.0849 14.5477 68.8373 14.4727 68.7247 14.5999C68.4692 14.8884 68.1565 15.1346 67.7866 15.3385C67.2189 15.6372 66.5517 15.7868 65.7853 15.7868C64.8629 15.7868 64.0328 15.5519 63.2949 15.0827C62.5569 14.6133 61.975 13.9447 61.5493 13.0771C61.1235 12.1954 60.9107 11.1714 60.9107 10.0052C60.9107 8.83904 61.1235 7.82228 61.5493 6.95475C61.975 6.0872 62.5569 5.41855 63.2949 4.94922C64.0328 4.47996 64.8629 4.24546 65.7853 4.24544C66.5375 4.24544 67.1975 4.40889 67.7651 4.736C68.145 4.94025 68.4645 5.18681 68.7234 5.47591C68.8368 5.6025 69.0849 5.52688 69.0849 5.35677V0.69987C69.0849 0.607897 69.1594 0.533261 69.2512 0.533203H71.4733ZM66.2752 6.29329C65.6934 6.29329 65.1895 6.44261 64.7637 6.74121C64.3522 7.03988 64.0398 7.47375 63.827 8.04264C63.6141 8.59729 63.5077 9.25147 63.5076 10.0052C63.5076 11.1714 63.7489 12.0887 64.2314 12.7572C64.7139 13.4256 65.3953 13.7601 66.2752 13.7601C66.8286 13.7601 67.3183 13.5963 67.744 13.2692C68.1839 12.9421 68.5244 12.494 68.7656 11.9251C69.0068 11.3563 69.1275 10.7163 69.1275 10.0052C69.1274 9.29417 69.0068 8.66139 68.7656 8.10677C68.5243 7.5379 68.1839 7.09674 67.744 6.78385C67.3183 6.45677 66.8286 6.29332 66.2752 6.29329Z" fill="#ffffff"/>
<path d="M75.8851 4.56543C75.977 4.56543 76.0514 4.64005 76.0514 4.7321V11.3919C76.0514 12.1315 76.1935 12.7004 76.4773 13.0986C76.7753 13.4969 77.2438 13.696 77.8825 13.696C78.2798 13.6959 78.6486 13.5892 78.9892 13.376C79.3298 13.1484 79.6065 12.807 79.8194 12.3519C80.0465 11.8826 80.1602 11.2994 80.1602 10.6025V4.7321C80.1602 4.64005 80.2346 4.56543 80.3265 4.56543H82.5272C82.619 4.56548 82.6935 4.64008 82.6935 4.7321V15.2998C82.6935 15.3918 82.619 15.4664 82.5272 15.4665H80.369C80.2772 15.4665 80.2027 15.3919 80.2027 15.2998V14.7689C80.2027 14.5967 79.9493 14.5233 79.8383 14.6546C79.5949 14.9424 79.3048 15.1776 78.9681 15.36C78.4572 15.6445 77.8469 15.7868 77.1373 15.7868C76.4136 15.7868 75.775 15.6372 75.2215 15.3385C74.6822 15.0257 74.2634 14.5706 73.9654 13.9733C73.6674 13.376 73.5185 12.6436 73.5184 11.776V4.7321C73.5184 4.64005 73.5929 4.56543 73.6848 4.56543H75.8851Z" fill="#ffffff"/>
<path d="M89.4274 4.2666C90.3357 4.2666 91.1377 4.43731 91.8331 4.77865C92.5285 5.10575 93.089 5.55386 93.5147 6.12272C93.9015 6.63957 94.1535 7.20921 94.2709 7.83171C94.2897 7.93132 94.2119 8.02107 94.1108 8.02116H91.9296C91.859 8.02116 91.7966 7.97633 91.7707 7.91048C91.5853 7.43781 91.3079 7.06949 90.9389 6.80534C90.5557 6.50668 90.066 6.35742 89.47 6.35742C88.9166 6.35743 88.4199 6.49947 87.98 6.78385C87.5543 7.0683 87.2205 7.48798 86.9792 8.04264C86.738 8.59727 86.6174 9.26571 86.6174 10.0479C86.6174 10.8158 86.738 11.4773 86.9792 12.0319C87.2205 12.5723 87.5543 12.9848 87.98 13.2692C88.4058 13.5536 88.8812 13.696 89.4063 13.696C90.0448 13.6959 90.5557 13.5466 90.9389 13.248C91.3075 12.971 91.5846 12.602 91.7701 12.1413C91.7963 12.0762 91.8585 12.0319 91.9286 12.0319H94.128C94.2305 12.0319 94.3087 12.124 94.2878 12.2246C94.1585 12.8459 93.9009 13.4147 93.5147 13.9307C93.089 14.4995 92.5212 14.9546 91.8117 15.2959C91.1021 15.623 90.2862 15.7868 89.3638 15.7868C88.3278 15.7868 87.3979 15.559 86.5748 15.1038C85.7659 14.6345 85.1273 13.9661 84.659 13.0986C84.1907 12.2311 83.9564 11.2141 83.9564 10.0479C83.9564 8.89589 84.1907 7.88608 84.659 7.01855C85.1415 6.13682 85.7943 5.46119 86.6174 4.99186C87.4547 4.50831 88.3914 4.26661 89.4274 4.2666Z" fill="#ffffff"/>
<path d="M98.4495 1.36523C98.5412 1.36531 98.6158 1.43993 98.6158 1.5319V4.39876C98.6159 4.49075 98.6903 4.56543 98.7821 4.56543H100.621C100.712 4.56543 100.787 4.64005 100.787 4.7321V6.38249C100.787 6.47453 100.712 6.54915 100.621 6.54915H98.7821C98.6903 6.54915 98.6159 6.62384 98.6158 6.71582V11.8825C98.6158 12.4656 98.7222 12.8995 98.9351 13.1839C99.1622 13.4683 99.5381 13.6107 100.063 13.6107C100.29 13.6107 100.536 13.5878 100.799 13.5423C100.903 13.5244 101 13.6033 101 13.709V15.2412C101 15.3123 100.955 15.3759 100.887 15.3962C100.491 15.5142 99.9897 15.5732 99.382 15.5732C98.4028 15.5732 97.615 15.3173 97.0189 14.8053C96.4371 14.2933 96.1461 13.4754 96.1461 12.3519V6.71582C96.1461 6.62384 96.0716 6.54915 95.9798 6.54915H94.4606C94.3688 6.54915 94.2943 6.47453 94.2943 6.38249V4.7321C94.2943 4.64005 94.3688 4.56543 94.4606 4.56543H95.9798C96.0716 4.56543 96.1461 4.49075 96.1461 4.39876V1.5319C96.1462 1.43992 96.2207 1.36531 96.3124 1.36523H98.4495Z" fill="#ffffff"/>
<path d="M56.1172 4.24544C56.8551 4.24546 57.4938 4.40165 58.033 4.71452C58.5723 5.02741 58.9911 5.48275 59.2891 6.08008C59.5871 6.66314 59.7361 7.37422 59.7361 8.21322V15.2998C59.7361 15.3918 59.6616 15.4664 59.5698 15.4665H57.3477C57.2559 15.4664 57.1813 15.3918 57.1813 15.2998V8.42676C57.1813 8.00009 57.1247 7.63721 57.0111 7.33854C56.8976 7.02569 56.6989 6.78393 56.4151 6.61328C56.1454 6.42841 55.8047 6.33594 55.3932 6.33594C54.9533 6.33596 54.5489 6.44263 54.18 6.65592C53.811 6.86926 53.5128 7.21068 53.2857 7.68001C53.0587 8.13511 52.9453 8.7041 52.9453 9.38672V15.2998C52.9453 15.3918 52.8708 15.4664 52.779 15.4665H50.5783C50.4864 15.4665 50.412 15.3919 50.412 15.2998V4.7321C50.412 4.64005 50.4864 4.56543 50.5783 4.56543H52.715C52.8068 4.56543 52.8813 4.64005 52.8813 4.7321V5.40299C52.8814 5.56945 53.113 5.6426 53.2227 5.51758C53.4919 5.21048 53.8111 4.94998 54.18 4.736C54.7192 4.4089 55.365 4.24544 56.1172 4.24544Z" fill="#ffffff"/>
<path d="M12.8543 10.4727C13.1299 10.4727 13.3532 10.6965 13.3533 10.9727V12.0091C13.3532 12.2852 13.1299 12.5091 12.8543 12.5091H2.82111C2.54563 12.509 2.3222 12.2852 2.32218 12.0091V10.9727C2.3222 10.6966 2.54563 10.4727 2.82111 10.4727H12.8543Z" fill="#ffffff"/>
<path d="M10.8222 6.98177C11.0978 6.98177 11.3211 7.20563 11.3212 7.48177V8.51823C11.3211 8.79433 11.0977 9.01823 10.8222 9.01823H0.498932C0.223407 9.01823 4.52532e-05 8.79433 0 8.51823V7.48177C3.42867e-06 7.20563 0.223382 6.98177 0.498932 6.98177H10.8222Z" fill="#ffffff"/>
<path d="M13.1447 3.49089C13.4202 3.49095 13.6437 3.71478 13.6437 3.99089V5.02734C13.6436 5.30339 13.4202 5.52728 13.1447 5.52734H2.82111C2.54566 5.52728 2.32225 5.30339 2.32218 5.02734V3.99089C2.32218 3.71479 2.54562 3.49095 2.82111 3.49089H13.1447Z" fill="#ffffff"/>
<path d="M17.7891 0C18.0646 0 18.288 0.223858 18.288 0.5V1.53646C18.288 1.81256 18.0646 2.03646 17.7891 2.03646H7.75619C7.48067 2.03646 7.2573 1.81256 7.25726 1.53646V0.5C7.25726 0.223858 7.48064 0 7.75619 0H17.7891Z" fill="#ffffff"/>
</svg>
