<svg viewBox="0 0 834.65 214.5" fill="none" xmlns="http://www.w3.org/2000/svg">
  <path d="m776.19.01-18.05 47.73h58.44L834.63.01h-58.44ZM319.41 58.75l-58.74 155.73h58.44l58.74-155.73h-58.44ZM257.3.01l-81.07 214.47h58.44L315.75.01H257.3Zm288.51 89.34c0-21.72-17.13-33.35-41-33.35-18.97 0-36.41 4.59-50.79 18.97l5.81-16.21h-56.6l-58.74 155.73h58.44l32.43-85.97c6.12-16.22 15.6-29.98 34.57-29.98 8.26 0 12.24 2.75 12.24 9.18 0 3.06-.92 7.04-2.75 11.93l-35.79 94.83h58.44l33.04-87.2c4.89-12.54 10.7-28.45 10.7-37.93m96.07 125.13h58.74l-33.04-80.77 80.16-74.96h-64.56l-59.66 56.29L666.96 0h-58.43l-81.08 214.47h58.44l27.23-72.2 28.76 72.21ZM81.08.01 0 214.48h64.25l27.84-73.43h86.58l19.27-51.4h-86.58l14.07-37.02h93.93L239.25.01H81.08Z" fill="#e81f76" fill-rule="nonzero"/>
</svg>
