<?xml version="1.0" encoding="utf-8"?>
<!-- Generator: Adobe Illustrator 27.7.0, SVG Export Plug-In . SVG Version: 6.00 Build 0)  -->
<svg version="1.1" xmlns="http://www.w3.org/2000/svg" xmlns:xlink="http://www.w3.org/1999/xlink" x="0px" y="0px"
	 viewBox="0 0 1749.46 236.77" enable-background="new 0 0 1749.46 236.77" xml:space="preserve">
<g id="Google">
	<g id="_x37_22x237pt">
		<g>
			<path fill="#FFFFFF" d="M93.18,183.68C42.56,183.68,0,142.46,0,91.84C0,41.22,42.56,0,93.18,0c28,0,47.94,10.98,62.94,25.31
				l-17.7,17.7c-10.75-10.08-25.31-17.92-45.25-17.92c-36.96,0-65.86,29.79-65.86,66.75s28.9,66.75,65.86,66.75
				c23.97,0,37.63-9.63,46.37-18.37c7.17-7.17,11.87-17.47,13.66-31.58H93.18V83.55h84.45c0.9,4.48,1.34,9.86,1.34,15.68
				c0,18.82-5.15,42.11-21.73,58.69C141.12,174.72,120.51,183.68,93.18,183.68z"/>
			<path fill="#FFFFFF" d="M305.83,124.54c0,34.05-26.65,59.13-59.36,59.13c-32.7,0-59.36-25.09-59.36-59.13
				c0-34.27,26.66-59.14,59.36-59.14C279.18,65.41,305.83,90.27,305.83,124.54z M279.85,124.54c0-21.28-15.46-35.84-33.38-35.84
				s-33.38,14.56-33.38,35.84c0,21.05,15.46,35.84,33.38,35.84S279.85,145.6,279.85,124.54z"/>
			<path fill="#FFFFFF" d="M434.83,124.54c0,34.05-26.65,59.13-59.36,59.13c-32.7,0-59.36-25.09-59.36-59.13
				c0-34.27,26.66-59.14,59.36-59.14C408.18,65.41,434.83,90.27,434.83,124.54z M408.85,124.54c0-21.28-15.46-35.84-33.38-35.84
				s-33.38,14.56-33.38,35.84c0,21.05,15.46,35.84,33.38,35.84S408.85,145.6,408.85,124.54z"/>
			<path fill="#FFFFFF" d="M558.68,69.1v106.07c0,43.68-25.76,61.6-56.22,61.6c-28.67,0-45.92-19.26-52.42-34.94l22.62-9.41
				c4.03,9.63,13.89,21.05,29.79,21.05c19.49,0,31.58-12.1,31.58-34.72v-8.51h-0.89c-5.82,7.17-17.03,13.44-31.14,13.44
				c-29.57,0-56.67-25.76-56.67-58.91c0-33.38,27.1-59.36,56.67-59.36c14.11,0,25.31,6.27,31.14,13.22h0.89V69.1H558.68z
				 M535.83,124.77c0-20.83-13.89-36.06-31.58-36.06c-17.92,0-32.93,15.23-32.93,36.06c0,20.61,15.01,35.62,32.93,35.62
				C521.94,160.38,535.83,145.38,535.83,124.77z"/>
			<path fill="#FFFFFF" d="M601.96,6.27V180.1h-25.98V6.27H601.96z"/>
			<path fill="#FFFFFF" d="M700.7,144.03l20.16,13.44c-6.5,9.63-22.18,26.21-49.28,26.21c-33.6,0-58-25.98-58-59.13
				c0-35.17,24.62-59.14,55.09-59.14c30.69,0,45.7,24.42,50.62,37.63l2.69,6.72l-79.07,32.7c6.05,11.87,15.46,17.92,28.67,17.92
				C684.79,160.38,693.98,153.89,700.7,144.03z M638.65,122.75l52.86-21.95c-2.91-7.39-11.65-12.54-21.95-12.54
				C656.34,88.26,637.98,99.9,638.65,122.75z"/>
		</g>
	</g>
</g>
<g id="DeepMind">
	<g>
		<g>
			<g>
				<g>
					<g>
						<path fill="#FFFFFF" d="M785.39,179.8V17.56h49.62c24.77,0,44.67,7.48,59.71,22.43c15.03,14.96,22.55,34.52,22.55,58.69
							c0,24.32-7.52,43.92-22.55,58.8c-15.03,14.88-34.93,22.32-59.71,22.32H785.39z M806.23,37.5v122.36h28.78
							c18.88,0,33.76-5.4,44.64-16.2c10.88-10.8,16.31-25.79,16.31-44.98c0-19.03-5.44-33.99-16.31-44.87
							c-10.88-10.88-25.76-16.31-44.64-16.31H806.23z"/>
						<path fill="#FFFFFF" d="M984.92,183.43c-16.31,0-29.76-5.59-40.33-16.77c-10.58-11.18-15.86-25.3-15.86-42.37
							c0-16.92,5.13-31,15.41-42.26c10.27-11.25,23.41-16.88,39.43-16.88c16.46,0,29.57,5.32,39.31,15.97
							c9.74,10.65,14.62,25.57,14.62,44.75l-0.23,2.27h-87.24c0.3,10.88,3.93,19.64,10.88,26.28c6.95,6.65,15.26,9.97,24.93,9.97
							c13.29,0,23.71-6.65,31.27-19.94l18.58,9.06c-4.99,9.37-11.9,16.69-20.73,21.98C1006.11,180.79,996.1,183.43,984.92,183.43z
							 M951.62,110.92h63.67c-0.61-7.7-3.74-14.08-9.4-19.15c-5.66-5.06-13.26-7.59-22.77-7.59c-7.86,0-14.62,2.42-20.28,7.25
							C957.17,96.27,953.43,102.76,951.62,110.92z"/>
						<path fill="#FFFFFF" d="M1102.93,183.43c-16.31,0-29.76-5.59-40.33-16.77c-10.58-11.18-15.86-25.3-15.86-42.37
							c0-16.92,5.13-31,15.41-42.26c10.27-11.25,23.41-16.88,39.43-16.88c16.46,0,29.57,5.32,39.31,15.97
							c9.74,10.65,14.62,25.57,14.62,44.75l-0.23,2.27h-87.24c0.3,10.88,3.93,19.64,10.88,26.28c6.95,6.65,15.26,9.97,24.93,9.97
							c13.29,0,23.71-6.65,31.27-19.94l18.58,9.06c-4.99,9.37-11.9,16.69-20.73,21.98C1124.12,180.79,1114.11,183.43,1102.93,183.43
							z M1069.62,110.92h63.67c-0.61-7.7-3.74-14.08-9.4-19.15c-5.66-5.06-13.26-7.59-22.77-7.59c-7.86,0-14.62,2.42-20.28,7.25
							C1075.18,96.27,1071.44,102.76,1069.62,110.92z"/>
						<path fill="#FFFFFF" d="M1228.71,183.43c-8.16,0-15.6-1.74-22.32-5.21c-6.72-3.47-11.9-8.08-15.52-13.82h-0.91l0.91,15.41
							v48.94h-20.85V68.77h19.94v15.41h0.91c3.63-5.74,8.8-10.35,15.52-13.82c6.72-3.47,14.16-5.21,22.32-5.21
							c14.65,0,27.04,5.74,37.16,17.22c10.42,11.63,15.63,25.61,15.63,41.92c0,16.47-5.21,30.44-15.63,41.92
							C1255.75,177.69,1243.37,183.43,1228.71,183.43z M1225.32,164.4c9.97,0,18.35-3.77,25.15-11.33c6.8-7.4,10.2-16.99,10.2-28.78
							c0-11.63-3.4-21.22-10.2-28.78c-6.8-7.55-15.18-11.33-25.15-11.33c-10.12,0-18.58,3.78-25.38,11.33
							c-6.65,7.56-9.97,17.15-9.97,28.78c0,11.78,3.32,21.45,9.97,29C1206.74,160.7,1215.19,164.4,1225.32,164.4z"/>
						<path fill="#FFFFFF" d="M1321.87,179.8h-20.85V17.56h20.85l56.42,98.79h0.91l56.42-98.79h20.85V179.8h-20.85V83.5l0.91-27.19
							h-0.91l-50.76,89.05h-12.24l-50.76-89.05h-0.91l0.91,27.19V179.8z"/>
						<path fill="#FFFFFF" d="M1508.26,30.48c0,4.08-1.44,7.56-4.31,10.42c-2.87,2.87-6.34,4.31-10.42,4.31
							c-4.08,0-7.56-1.43-10.42-4.31c-2.87-2.87-4.31-6.34-4.31-10.42c0-4.08,1.43-7.55,4.31-10.42c2.87-2.87,6.34-4.31,10.42-4.31
							c4.08,0,7.55,1.44,10.42,4.31C1506.82,22.93,1508.26,26.4,1508.26,30.48z M1503.95,68.77V179.8h-20.85V68.77H1503.95z"/>
						<path fill="#FFFFFF" d="M1525.66,68.77h19.94v15.41h0.91c3.17-5.44,8.04-9.97,14.62-13.6c6.57-3.63,13.4-5.44,20.51-5.44
							c13.6,0,24.05,3.89,31.38,11.67c7.33,7.78,10.99,18.85,10.99,33.2v69.79h-20.85v-68.43c-0.45-18.13-9.59-27.19-27.42-27.19
							c-8.31,0-15.26,3.36-20.85,10.08c-5.59,6.72-8.38,14.77-8.38,24.13v61.41h-20.85V68.77z"/>
						<path fill="#FFFFFF" d="M1690.78,183.43c-14.5,0-26.96-5.74-37.39-17.22c-10.27-11.63-15.41-25.61-15.41-41.92
							s5.13-30.29,15.41-41.92c10.42-11.48,22.89-17.22,37.39-17.22c8.16,0,15.6,1.74,22.32,5.21c6.72,3.48,11.9,8.08,15.52,13.82
							h0.91l-0.91-15.41V17.56h20.85V179.8h-19.94V164.4h-0.91c-3.63,5.74-8.8,10.35-15.52,13.82
							C1706.37,181.69,1698.93,183.43,1690.78,183.43z M1694.17,164.4c10.27,0,18.66-3.7,25.15-11.1c6.8-7.4,10.2-17.07,10.2-29
							c0-11.63-3.4-21.22-10.2-28.78c-6.65-7.55-15.03-11.33-25.15-11.33c-9.97,0-18.35,3.78-25.15,11.33
							c-6.8,7.56-10.2,17.15-10.2,28.78c0,11.78,3.4,21.38,10.2,28.78C1675.82,160.62,1684.2,164.4,1694.17,164.4z"/>
					</g>
				</g>
			</g>
		</g>
	</g>
</g>
</svg>
