<svg width="1201" height="262" viewBox="0 0 1201 262" fill="none" xmlns="http://www.w3.org/2000/svg">
<path d="M60.7237 245.259C41.8152 234.104 26.9637 218.579 16.1814 198.682C5.39202 178.792 0 156.234 0 131C0 105.773 5.45416 83.2112 16.3625 63.3145C27.2708 43.4286 42.1792 27.8993 61.0877 16.7375C79.9944 5.58271 100.721 0 123.264 0C142.9 0 160.655 4.06533 176.534 12.1889C192.407 20.3195 205.497 31.0549 215.803 44.3952C226.104 57.7389 233.439 71.9285 237.801 86.9673H188.714C183.38 74.8424 174.773 64.8959 162.899 57.1313C151.017 49.3702 137.808 45.4861 123.264 45.4861C108.959 45.4861 96.0497 49.0042 84.5395 56.0367C73.024 63.0764 63.9337 73.0834 57.2687 86.0576C50.5983 99.0389 47.2694 114.021 47.2694 131C47.2694 147.983 50.5983 162.965 57.2687 175.939C63.9337 188.92 73.024 198.927 84.5395 205.96C96.0497 212.999 108.959 216.514 123.264 216.514C136.111 216.514 147.683 213.785 157.99 208.326C168.289 202.868 176.351 195.896 182.169 187.403C187.987 178.913 191.26 170.299 191.988 161.565L193.806 147.375L204.714 159.745H130.174V125.176H239.619V258.361H203.622L199.986 228.884H198.168C193.561 234.47 187.561 239.801 180.17 244.896C172.772 249.992 164.17 254.118 154.353 257.27C144.535 260.419 134.172 262 123.264 262C100.476 262 79.6304 256.421 60.7237 245.259Z" fill="white"/>
<path d="M255.976 74.2312H294.156L297.792 89.8813H299.61C303.003 85.2758 307.427 81.509 312.881 78.5986C318.335 75.6882 325.062 74.2312 333.063 74.2312H366.878V116.078H335.971C324.336 116.078 315.484 119.174 309.428 125.36C303.365 131.544 300.338 140.584 300.338 152.467V258.361H255.976L255.976 74.2312Z" fill="white"/>
<path d="M397.604 254.541C387.542 249.57 379.844 242.775 374.514 234.161C369.18 225.554 366.515 215.91 366.515 205.231C366.515 193.348 369.243 182.915 374.697 173.938C380.151 164.965 388.513 157.926 399.785 152.833C411.058 147.737 424.931 145.19 441.42 145.19H485.053V140.826C485.053 130.879 482.019 122.812 475.963 116.626C469.9 110.439 461.656 107.347 451.236 107.347C444.93 107.347 439.357 108.381 434.51 110.439C429.659 112.504 425.84 115.233 423.056 118.626C420.267 122.027 418.387 125.542 417.421 129.181H373.424C374.39 118.992 378.088 109.412 384.513 100.432C390.933 91.4591 399.842 84.2381 411.239 78.7798C422.63 73.3215 435.966 70.5923 451.236 70.5923C467.235 70.5923 481.11 73.5667 492.87 79.5083C504.625 85.4571 513.716 93.7618 520.141 104.437C526.561 115.112 529.776 127.24 529.776 140.826V258.361H491.233L487.597 240.167H485.779C481.655 245.749 474.871 250.781 465.417 255.266C455.964 259.754 445.056 262 432.692 262C419.358 262 407.66 259.509 397.604 254.541ZM464.326 220.696C471.11 217.186 476.263 212.146 479.78 205.597C483.292 199.048 485.053 191.529 485.053 183.035V177.577H445.782C434.147 177.577 425.476 179.759 419.784 184.126C414.085 188.494 411.239 194.442 411.239 201.958C411.239 209.236 413.723 215.057 418.694 219.424C423.658 223.792 430.874 225.974 440.328 225.974C449.537 225.974 457.537 224.218 464.326 220.696Z" fill="white"/>
<path d="M585.587 249.808C572.616 241.684 562.374 230.341 554.862 215.785C547.346 201.23 543.591 184.734 543.591 166.298C543.591 147.62 547.346 131 554.862 116.444C562.374 101.889 572.616 90.6061 585.587 82.6035C598.552 74.5972 612.915 70.5923 628.676 70.5923C640.55 70.5923 651.037 72.7778 660.128 77.1451C669.218 81.509 676.309 86.9673 681.399 93.5201H683.217V3.63889H727.941V258.361H689.398L685.762 237.619H683.943C678.127 244.896 670.61 250.781 661.401 255.266C652.184 259.754 641.276 262 628.676 262C612.915 262 598.552 257.938 585.587 249.808ZM659.947 213.966C667.219 209.36 672.911 202.992 677.035 194.862C681.154 186.738 683.217 177.215 683.217 166.298C683.217 155.381 681.154 145.801 677.035 137.549C672.911 129.305 667.219 122.994 659.947 118.626C652.674 114.259 644.674 112.077 635.948 112.077C627.222 112.077 619.221 114.259 611.949 118.626C604.677 122.994 598.916 129.305 594.678 137.549C590.434 145.801 588.315 155.381 588.315 166.298C588.315 177.215 590.434 186.738 594.678 194.862C598.916 202.992 604.677 209.36 611.949 213.966C619.221 218.579 627.222 220.881 635.948 220.881C644.674 220.881 652.674 218.579 659.947 213.966Z" fill="white"/>
<path d="M745.757 1.45342H793.391V42.9382H745.757V1.45342ZM747.211 74.2312H791.573V258.361H747.211V74.2312Z" fill="white"/>
<path d="M978.106 258.361H978.467V143.862C978.24 145.598 978.106 147.371 978.106 149.194V258.361Z" fill="white"/>
<path d="M933.747 74.2312V179.034C933.747 186.553 931.985 193.469 928.474 199.773C924.956 206.084 920.111 210.999 913.929 214.513C907.747 218.031 900.777 219.787 893.022 219.787C885.504 219.787 878.715 218.031 872.659 214.513C866.598 210.999 861.87 206.141 858.479 199.958C855.08 193.771 853.388 186.799 853.388 179.034V74.2312H809.027V184.855C809.027 200.139 812.118 213.664 818.3 225.43C824.48 237.199 833.083 246.233 844.115 252.537C855.144 258.844 867.688 262 881.749 262C893.385 262 903.868 259.871 913.201 255.632C922.092 251.589 928.923 246.817 933.748 241.338L933.747 74.2312Z" fill="white"/>
<path d="M1192.09 106.256C1186.15 95.098 1178.03 86.3668 1167.73 80.0556C1157.42 73.7479 1145.97 70.5923 1133.37 70.5923C1120.28 70.5923 1108.64 73.3215 1098.46 78.7798C1088.28 84.2381 1080.77 90.6062 1075.92 97.884H1074.1C1070.22 91.0966 1063.79 84.8494 1054.83 79.1458C1045.86 73.4494 1035.19 70.5923 1022.83 70.5923C1013.13 70.5923 1004.16 72.7778 995.924 77.1451C988.326 81.1669 982.563 85.6276 978.468 90.4756L978.467 143.862C979.085 139.133 980.527 134.721 982.834 130.634C985.981 125.058 990.225 120.691 995.56 117.535C1000.89 114.387 1006.71 112.806 1013.01 112.806C1019.31 112.806 1024.89 114.259 1029.74 117.173C1034.59 120.083 1038.34 124.266 1041.01 129.724C1043.68 135.183 1045.01 141.679 1045.01 149.195V258.361H1089.73V149.195C1089.73 142.404 1091.25 136.22 1094.28 130.634C1097.31 125.058 1101.49 120.691 1106.83 117.535C1112.16 114.387 1117.97 112.806 1124.28 112.806C1130.82 112.806 1136.46 114.259 1141.19 117.173C1145.91 120.083 1149.61 124.266 1152.28 129.724C1154.94 135.183 1156.28 141.679 1156.28 149.195V258.361H1201V144.099C1201 130.034 1198.03 117.415 1192.09 106.256Z" fill="white"/>
<path d="M977.382 91.7007H975.564L971.927 74.2312H933.747L933.748 241.338C933.986 241.067 934.245 240.804 934.473 240.529H936.291L939.927 258.361L978.106 258.361V149.194C978.106 147.371 978.24 145.598 978.467 143.862L978.468 90.4756C978.12 90.8869 977.704 91.2831 977.382 91.7007Z" fill="white"/>
</svg>