<?xml version="1.0" encoding="UTF-8" standalone="no"?>
<svg
  width="859.23358"
  height="179.71938"
  viewBox="0 0 859.23358 179.71938"
  version="1.1"
  xmlns="http://www.w3.org/2000/svg"
>
  <g transform="matrix(1.2489036,0,0,1.2489036,-99.924363,-69.999197)">
    <path
      fill="#ffffff"
      d="m 173.98,198.71 c -1.87,0.95 -12.61,1.25 -43.98,1.24 -45.43,-0.03 -45.44,-0.03 -48.49,-5.93 -1.3,-2.52 -1.51,-11.67 -1.5,-66.22 0,-60.89 0.08,-63.41 1.94,-66.23 0.64,-0.98 1.16,-1.79 1.82,-2.45 3.04,-3.05 9.14,-3.05 44.92,-3.07 H 130 c 44.59,-0.02 45.62,0.09 47.38,5.08 1.52,4.32 0.06,7.09 -9.76,18.45 -38.51,44.61 -38.62,44.75 -38.62,48.41 0.01,3.14 2.55,6.47 24.03,31.45 13.21,15.36 24.3,29.04 24.64,30.39 0.87,3.46 -0.77,7.41 -3.69,8.88 z M 247,145.35 V 168 H 230 V 87.25 l 3.12,-0.63 c 3.92,-0.78 8.7,-0.78 11.63,0.01 2.23,0.6 2.25,0.77 2.25,19.03 v 18.43 l 8.25,-9.73 c 8.37,-9.87 15.4,-17.95 21.29,-24.46 3.26,-3.6 3.26,-3.6 12.08,-3.67 8.67,-0.08 11.48,0.4 9.7,1.65 -0.73,0.5 -14.36,16.24 -27.11,31.3 l -2.29,2.7 31.21,46.12 -19.63,-0.03 -11,-16.98 C 263.45,141.65 258.21,134 257.85,134 c -0.35,0 -2.94,2.55 -5.75,5.67 z m 216.58,4.39 -5.1,17.76 -8.49,0.26 -8.49,0.27 -8.43,-27.77 c -4.64,-15.27 -8.63,-28.32 -8.86,-29.01 -0.32,-0.93 1.71,-1.25 8.04,-1.25 h 8.46 l 3.59,13.75 c 1.97,7.56 4.15,16.56 4.84,20 1.18,5.83 2.86,8.48 2.86,4.49 0,-0.96 2.18,-9.85 4.84,-19.75 l 4.83,-17.99 h 14.83 l 5.18,19.5 c 2.85,10.73 5.25,19.73 5.32,20 0.08,0.27 1.44,-5.02 3.03,-11.76 1.58,-6.75 3.85,-15.86 5.03,-20.25 l 2.16,-7.99 h 8.46 c 6.67,0 8.4,0.29 8.14,1.37 -0.17,0.76 -4.15,13.82 -8.82,29.04 l -8.5,27.66 -16.92,-0.57 -4.76,-16.5 c -2.62,-9.07 -4.78,-17.36 -4.79,-18.42 -0.06,-3.91 -1.47,-0.16 -6.45,17.16 z m -58.37,17.71 c -4.73,1.61 -15.84,1.95 -20.22,0.62 -4.81,-1.47 -8.67,-3.97 -12.29,-7.98 -5.61,-6.21 -7.02,-10.28 -7.11,-20.59 -0.06,-7.44 0.34,-9.92 2.31,-14.29 4.92,-10.93 15.83,-16.93 29.03,-15.98 16.58,1.2 26.32,12.14 26.49,29.77 0.07,7.39 -0.29,9.25 -2.73,14.22 -3.3,6.72 -9.1,12.05 -15.48,14.23 z m 326.47,22.49 c -1.54,0.58 -5.88,1.06 -9.63,1.06 h -6.83 l -0.67,-3.58 c -0.37,-1.97 -0.38,-4.9 -0.03,-6.5 0.6,-2.73 0.95,-2.92 5.4,-2.92 5.35,0 7.1,-1.35 9.04,-7 1.14,-3.33 0.67,-4.87 -9.48,-31 -5.87,-15.12 -10.9,-28.06 -11.18,-28.75 -0.39,-0.94 1.6,-1.25 8.09,-1.25 4.74,0 8.61,0.13 8.61,0.28 0,0.64 13.13,39.19 13.46,39.51 0.2,0.2 1.09,-2.17 1.99,-5.25 0.89,-3.08 3.91,-12.12 6.7,-20.07 L 752.22,110 h 7.89 c 5.34,0 7.89,0.38 7.89,1.17 0,1.33 -24.59,66.05 -26.54,69.83 -1.76,3.43 -6.38,7.66 -9.78,8.94 z m -185.3,-21.9 c -4.52,1.72 -12.64,1.12 -17.41,-1.29 -9.25,-4.67 -11.14,-11.3 -10.74,-37.77 l 0.27,-18.48 h 16 l 0.51,19.5 c 0.28,10.73 0.86,20.23 1.3,21.11 1.71,3.45 10.46,5.15 14.73,2.87 3.87,-2.07 4.44,-4.9 4.96,-24.48 l 0.5,-19 h 16 l 0.27,28.75 0.26,28.75 H 557 v -8.23 l -4.05,3.66 c -2.23,2.01 -5.19,4.09 -6.57,4.61 z M 320.01,151.25 320,168 h -16 v -58 h 16 v 8.39 l 3.25,-3.14 c 10.71,-10.37 27.65,-7.32 33.2,5.98 1.24,2.96 1.55,8.07 1.55,25.24 V 168 h -15.88 l -0.31,-20.09 -0.31,-20.09 -2.81,-2.41 c -5.71,-4.91 -15.61,-1.94 -17.62,5.29 -0.58,2.09 -1.06,11.34 -1.06,20.55 z M 598,150.15 V 168 h -16 v -58 h 16 v 7.74 l 3.53,-3.33 c 5.63,-5.31 14.9,-6.93 22.22,-3.87 4.77,1.99 6.98,4.05 9.6,8.96 1.96,3.67 2.16,5.81 2.48,26.25 l 0.34,22.25 h -16.02 l -0.32,-19.58 -0.33,-19.59 -3.27,-2.91 c -5.59,-5 -14.87,-3.27 -17.12,3.2 -0.65,1.87 -1.11,10.54 -1.11,21.03 z m 106,4.95 V 168 l -7.75,-0.02 c -9.59,-0.03 -15.31,-2.32 -17.9,-7.15 -1.46,-2.74 -1.73,-5.36 -1.5,-14.83 0.15,-6.32 -0.02,-14.09 -0.39,-17.25 L 675.8,123 h -4.33 c -5.11,0 -6.05,-1.62 -5.01,-8.6 l 0.66,-4.4 h 10.01 l -0.28,-6.95 c -0.16,-3.82 0.08,-7.31 0.52,-7.75 0.43,-0.44 4.02,-0.8 7.96,-0.8 h 7.17 l 0.58,15.5 H 704 v 13 h -11.05 l 0.55,31.5 z M 661,110 v 58 h -16 v -58 z m -273.39,43.91 c 1.75,1.37 4.11,2.09 6.89,2.09 4.78,0 8.66,-2.48 11.02,-7.04 1.91,-3.68 1.93,-14.95 0.04,-19.47 -2.8,-6.7 -11.02,-9.34 -17.26,-5.53 -4.66,2.84 -6.67,7.36 -6.67,15.04 0,7.23 1.75,11.58 5.98,14.91 z M 660.24,99.95 c -1.09,1.35 -3.35,2.39 -5.95,2.74 -3.72,0.5 -4.54,0.21 -7.24,-2.49 C 641.08,94.24 644.53,86 653,86 c 7.59,0 11.86,8.24 7.24,13.95 z"
    />
  </g>
</svg>


