<svg width="101" height="26" viewBox="0 0 101 26" fill="none" xmlns="http://www.w3.org/2000/svg">
<path d="M0.849182 18.8492C1.01322 12.8492 3.01437 0.849152 9.70671 0.849152C16.399 0.849152 19.0016 12.8492 19.4664 18.8492M0.849182 18.8492C2.32543 15.8492 14.3815 1.98429 20.7786 4.57888C25.8963 6.65455 22.0361 14.9573 19.4664 18.8492M0.849182 18.8492C6.67408 16.2208 21.8122 12.4598 26.494 13.3445C27.5416 13.5424 27.8366 14.7163 27.0132 15.3935C25.9023 16.3073 23.583 17.5061 19.4664 18.8492" stroke="white" stroke-width="1.69832" stroke-linejoin="round"></path>
<path d="M36.7327 19.3486L37.6759 20.5675V20.7841H33.8492V20.5675L34.7924 19.3486V2.88057L33.8492 1.55338V1.36378L36.7327 0.849152V19.3486Z" fill="white"></path>
<path d="M42.1164 19.3486L43.0596 20.5675V20.7841H39.2598V20.5675L40.203 19.3486V8.62272L39.2598 7.29552V7.10592L42.1164 6.5913V19.3486ZM41.0923 4.23485C40.3108 4.23485 39.7179 3.61188 39.7179 2.8264C39.7179 2.04092 40.3108 1.41795 41.0923 1.41795C41.9277 1.41795 42.5475 2.04092 42.5475 2.8264C42.5475 3.61188 41.9277 4.23485 41.0923 4.23485Z" fill="white"></path>
<path d="M44.6685 20.7841V20.5675L45.6117 19.3486V8.62272L44.6685 7.29552V7.10592L47.5251 6.5913V9.5978C48.3605 7.70181 50.0583 6.45587 52.1333 6.45587C54.8821 6.45587 56.8224 8.16226 56.8224 11.2229V19.3486L57.7656 20.5675V20.7841H53.9658V20.5675L54.909 19.3486V11.4667C54.909 9.13734 53.5886 7.97266 51.7291 7.97266C49.7349 7.97266 48.0371 9.51654 47.5251 12.0084V19.3486L48.4683 20.5675V20.7841H44.6685Z" fill="white"></path>
<path d="M67.6167 6.72672H71.632V6.94341L69.6378 8.24352L65.5416 11.873L70.9853 19.3486L72.5483 20.5675V20.7841H68.2904L68.2634 20.5675L68.5868 19.3757L64.1133 13.1189L62.0383 14.9607V19.3486L62.9815 20.5675V20.7841H59.1547V20.5675L60.098 19.3486V2.88057L59.1547 1.55338V1.36378L62.0383 0.849152V13.2814L67.5628 8.21643V6.94341L67.6167 6.72672Z" fill="white"></path>
<path d="M78.1147 21.055C75.3659 21.055 73.4256 19.3486 73.4256 16.2879V8.56855L72.4824 7.29552V7.10592L75.339 6.5913V16.0442C75.339 18.4277 76.6864 19.5382 78.5189 19.5382C80.5131 19.5382 82.2109 17.9943 82.696 15.5025V8.56855L81.7528 7.29552V7.10592L84.6363 6.5913V19.3486L85.5795 20.5675V20.7841H82.696V17.9131C81.8875 19.8091 80.1628 21.055 78.1147 21.055Z" fill="white"></path>
<path d="M87.0514 25.8492V25.6325L87.9946 24.3594V8.62272L87.0514 7.29552V7.10592L89.908 6.5913V9.57071C90.7434 7.59346 92.6567 6.45587 94.651 6.45587C98.316 6.45587 100.849 9.48946 100.849 13.769C100.849 17.9943 98.0196 21.055 94.2198 21.055C92.522 21.055 90.9051 20.3237 89.908 18.8611V24.3594L91.2285 25.6325V25.8492H87.0514ZM94.085 19.8632C96.8608 19.8632 98.7741 17.2359 98.7741 13.769C98.7741 10.4104 97.0224 7.91849 94.3276 7.91849C92.0369 7.91849 90.2044 9.65197 89.908 12.2793V16.0171C90.42 18.4006 91.983 19.8632 94.085 19.8632Z" fill="white"></path>
</svg>
