<svg width="212" height="40" viewBox="0 0 212 40" fill="none" xmlns="http://www.w3.org/2000/svg">
<g clip-path="url(#clip0_113_1286)">
<path d="M0 1.6C0 0.716346 0.716345 0 1.6 0H38.4C39.2837 0 40 0.716345 40 1.6V38.4C40 39.2837 39.2837 40 38.4 40H1.6C0.716346 40 0 39.2837 0 38.4V1.6Z" fill="black"/>
<path d="M25.1337 26.3099C22.5588 27.4475 19.7694 26.9814 18.6965 26.6062C18.6965 26.8629 18.6848 27.6608 18.638 28.7984C18.5912 29.9359 18.2284 30.6548 18.0528 30.8721C18.0723 31.5831 18.0879 33.1354 17.9943 33.6568C17.9006 34.1782 17.5651 34.6245 17.4091 34.7825H15.829C15.9695 34.0715 16.5118 33.6173 16.7654 33.479C16.9058 32.0097 16.6288 30.7338 16.4728 30.2796C16.3167 30.8326 15.9344 32.1163 15.6535 32.8273C15.3726 33.5383 14.9512 34.19 14.7757 34.427H13.6053C13.5468 33.716 13.9369 33.479 14.1905 33.479C14.3075 33.2618 14.5884 32.5784 14.7757 31.5831C14.9629 30.5877 14.6977 28.7194 14.5416 27.9096V25.3619C12.669 24.3547 11.9667 23.3475 11.4986 22.2217C11.124 21.3211 11.2255 19.9505 11.323 19.3778C11.206 19.1605 10.8647 18.6084 10.7378 17.8373C10.5623 16.7708 10.6598 16.0006 10.7378 15.5858C10.6208 15.4674 10.3867 14.863 10.3867 13.3936C10.3867 11.9243 10.8158 11.1619 11.0304 10.9644V10.3127C10.2111 10.2534 9.39184 9.89795 8.92368 9.42396C8.45552 8.94997 8.80664 8.23898 9.09924 8.00199C9.39184 7.76499 9.68444 7.94274 10.0941 7.82424C10.5037 7.70574 10.8548 7.58724 11.0304 7.23175C11.1708 6.94735 10.8939 5.77028 10.7378 5.21729C11.44 5.31208 11.8887 5.92827 12.0252 6.22452V5.21729C12.903 5.63203 14.4831 6.63926 15.0098 8.83147C15.4311 10.5852 15.7315 14.2626 15.829 15.8821C18.0723 15.9019 20.9203 15.5604 23.4951 16.1191C25.8359 16.627 26.8893 17.6596 28.1182 17.6596C29.3471 17.6596 30.0494 16.9486 30.9272 17.5411C31.805 18.1336 32.2731 19.7925 32.1561 21.0368C32.0625 22.0321 31.2978 22.36 30.9272 22.3995C30.459 23.9637 30.9272 25.4607 31.2198 26.0137V28.2651C31.3563 28.4626 31.6294 29.0709 31.6294 29.9241C31.6294 30.7773 31.3563 31.3461 31.2198 31.5238C31.4538 32.851 31.1222 34.2098 30.9272 34.7233H29.3471C29.5344 34.2493 29.8543 34.1308 29.9908 34.1308C30.2717 32.6614 30.0689 31.3066 29.9323 30.8128C29.0428 30.2914 28.4693 29.3711 28.2938 28.9761C28.3133 29.3119 28.2587 30.244 27.8841 31.2868C27.5096 32.3296 26.9478 32.9458 26.7137 33.1235V34.3678H25.1337C25.1337 33.6094 25.5628 33.4593 25.7774 33.479C26.0505 32.9853 26.7137 32.2348 26.7137 30.7536C26.7137 29.5037 25.8359 28.9169 25.1922 27.7911C24.8864 27.2563 25.0362 26.5864 25.1337 26.3099Z" fill="url(#paint0_linear_113_1286)"/>
</g>
<path d="M67.7275 29.6629V10H71.8615V29.6629H67.7275Z" fill="black"/>
<path fill-rule="evenodd" clip-rule="evenodd" d="M169.445 29.8749C168.102 29.8749 166.892 29.5746 165.815 28.9739C164.737 28.3556 163.88 27.4988 163.244 26.4034C162.626 25.3081 162.317 24.0184 162.317 22.5344C162.317 21.0328 162.626 19.7343 163.244 18.639C163.88 17.5436 164.737 16.6956 165.815 16.095C166.892 15.4943 168.102 15.194 169.445 15.194C170.646 15.194 171.698 15.459 172.599 15.989C173.013 16.2324 173.383 16.5335 173.711 16.8924V10H177.845V29.6629H173.897V28.0166C173.541 28.4468 173.126 28.8012 172.652 29.0799C171.768 29.6099 170.699 29.8749 169.445 29.8749ZM170.161 26.4829C170.832 26.4829 171.441 26.3239 171.989 26.0059C172.537 25.6879 172.969 25.2374 173.287 24.6544C173.623 24.0538 173.791 23.3471 173.791 22.5344C173.791 21.7041 173.623 20.9974 173.287 20.4145C172.969 19.8315 172.537 19.381 171.989 19.063C171.441 18.745 170.832 18.586 170.161 18.586C169.472 18.586 168.853 18.745 168.306 19.063C167.758 19.381 167.316 19.8315 166.981 20.4145C166.663 20.9974 166.504 21.7041 166.504 22.5344C166.504 23.3471 166.663 24.0538 166.981 24.6544C167.316 25.2374 167.758 25.6879 168.306 26.0059C168.853 26.3239 169.472 26.4829 170.161 26.4829Z" fill="black"/>
<path fill-rule="evenodd" clip-rule="evenodd" d="M184.454 28.9208C185.691 29.5567 187.122 29.8747 188.747 29.8747C190.037 29.8747 191.176 29.6804 192.166 29.2917C193.155 28.8854 193.976 28.3113 194.63 27.5693L192.431 25.1843C191.954 25.6436 191.424 25.9881 190.841 26.2178C190.275 26.4474 189.613 26.5623 188.853 26.5623C188.005 26.5623 187.263 26.4121 186.627 26.1118C186.009 25.7938 185.523 25.3433 185.17 24.7603C184.987 24.4332 184.854 24.0799 184.771 23.7003H195.558L195.566 23.6216C195.581 23.4687 195.596 23.3095 195.611 23.1438C195.628 22.9318 195.637 22.7463 195.637 22.5873C195.637 21.0503 195.31 19.7341 194.657 18.6388C194.003 17.5258 193.111 16.6778 191.98 16.0948C190.867 15.4941 189.613 15.1938 188.217 15.1938C186.768 15.1938 185.47 15.5118 184.322 16.1478C183.173 16.7661 182.263 17.6318 181.592 18.7448C180.938 19.8401 180.612 21.1033 180.612 22.5343C180.612 23.9476 180.947 25.2108 181.619 26.3238C182.29 27.4191 183.235 28.2848 184.454 28.9208ZM184.723 21.2888C184.792 20.8472 184.923 20.4497 185.117 20.0963C185.417 19.5309 185.832 19.0981 186.362 18.7978C186.91 18.4798 187.537 18.3208 188.244 18.3208C188.95 18.3208 189.569 18.4798 190.099 18.7978C190.629 19.0981 191.044 19.5221 191.344 20.0698C191.543 20.4333 191.677 20.8397 191.744 21.2888H184.723Z" fill="black"/>
<path d="M201.684 22.472L196.199 29.6632H200.704L203.943 25.2961L207.064 29.6632H211.755L206.24 22.3784L211.543 15.4062H207.144L204.047 19.57L201.022 15.4062H196.385L201.684 22.472Z" fill="black"/>
<path d="M156.584 15.8828C155.701 15.4234 154.694 15.1938 153.563 15.1938C152.344 15.1938 151.258 15.4499 150.304 15.9623C149.742 16.2646 149.256 16.6438 148.846 17.0998V15.4058H144.898V29.6627H149.032V22.6138C149.032 21.7304 149.173 21.0061 149.456 20.4408C149.756 19.8754 150.162 19.4603 150.675 19.1953C151.205 18.9126 151.797 18.7713 152.45 18.7713C153.369 18.7713 154.076 19.0451 154.57 19.5928C155.083 20.1404 155.339 20.9884 155.339 22.1368V29.6627H159.473V21.5008C159.473 20.0521 159.217 18.8684 158.704 17.9498C158.192 17.0134 157.485 16.3244 156.584 15.8828Z" fill="black"/>
<path d="M136.494 29.6628V11.1128H140.787V29.6628H136.494Z" fill="black"/>
<path fill-rule="evenodd" clip-rule="evenodd" d="M128.592 27.8915V29.6627H132.461V21.5273C132.461 19.3543 131.86 17.7554 130.659 16.7308C129.458 15.7061 127.771 15.1938 125.598 15.1938C124.467 15.1938 123.354 15.3439 122.259 15.6443C121.163 15.9446 120.227 16.3686 119.45 16.9163L120.934 19.8048C121.446 19.3984 122.064 19.0804 122.789 18.8508C123.531 18.6034 124.281 18.4798 125.041 18.4798C126.154 18.4798 126.976 18.7271 127.506 19.2218C128.053 19.7164 128.327 20.4054 128.327 21.2888H125.041C123.592 21.2888 122.418 21.4743 121.517 21.8453C120.616 22.1986 119.953 22.6933 119.529 23.3293C119.123 23.9653 118.92 24.7073 118.92 25.5553C118.92 26.3679 119.132 27.1011 119.556 27.7548C119.98 28.4084 120.589 28.9296 121.384 29.3182C122.179 29.6892 123.133 29.8747 124.246 29.8747C125.5 29.8747 126.525 29.6363 127.32 29.1593C127.857 28.8374 128.281 28.4147 128.592 27.8915ZM128.327 23.7003H125.492C124.52 23.7003 123.849 23.8593 123.478 24.1773C123.124 24.4953 122.948 24.8928 122.948 25.3698C122.948 25.8998 123.151 26.3238 123.557 26.6418C123.981 26.9421 124.555 27.0923 125.28 27.0923C125.969 27.0923 126.587 26.9333 127.135 26.6153C127.682 26.2796 128.08 25.7938 128.327 25.1578V23.7003Z" fill="black"/>
<path d="M110.312 15.1938C111.442 15.1938 112.44 15.4234 113.306 15.8828C114.189 16.3244 114.878 17.0134 115.373 17.9498C115.885 18.8684 116.142 20.0521 116.142 21.5008V29.6627H112.008V22.1368C112.008 20.9884 111.769 20.1404 111.292 19.5928C110.815 19.0451 110.144 18.7713 109.278 18.7713C108.677 18.7713 108.139 18.9126 107.662 19.1953C107.185 19.4603 106.814 19.8666 106.549 20.4143C106.284 20.9619 106.151 21.6598 106.151 22.5078V29.6627H102.017V22.1368C102.017 20.9884 101.779 20.1404 101.302 19.5928C100.842 19.0451 100.18 18.7713 99.3143 18.7713C98.7133 18.7713 98.1753 18.9126 97.698 19.1953C97.221 19.4603 96.85 19.8666 96.585 20.4143C96.32 20.9619 96.1875 21.6598 96.1875 22.5078V29.6627H92.0535V15.4058H96.002V17.0508C96.3854 16.6092 96.8359 16.2464 97.3535 15.9623C98.2723 15.4499 99.3143 15.1938 100.48 15.1938C101.787 15.1938 102.927 15.5294 103.899 16.2008C104.416 16.5424 104.841 16.9805 105.175 17.5151C105.586 16.9936 106.088 16.5467 106.681 16.1743C107.741 15.5206 108.951 15.1938 110.312 15.1938Z" fill="black"/>
<path fill-rule="evenodd" clip-rule="evenodd" d="M84.4432 27.8912V29.6627H88.3122V21.5273C88.3122 19.3543 87.7116 17.7554 86.5102 16.7308C85.3089 15.7061 83.6217 15.1938 81.4487 15.1938C80.3181 15.1938 79.2051 15.3439 78.1097 15.6443C77.0144 15.9446 76.0781 16.3686 75.3008 16.9163L76.7847 19.8048C77.2971 19.3984 77.9154 19.0804 78.6397 18.8508C79.3817 18.6034 80.1326 18.4798 80.8922 18.4798C82.0052 18.4798 82.8267 18.7271 83.3567 19.2218C83.9044 19.7164 84.1782 20.4054 84.1782 21.2888H80.8922C79.4436 21.2888 78.2687 21.4743 77.3677 21.8453C76.4668 22.1986 75.8043 22.6933 75.3803 23.3293C74.9739 23.9653 74.7708 24.7073 74.7708 25.5553C74.7708 26.3679 74.9828 27.1011 75.4068 27.7548C75.8307 28.4084 76.4402 28.9296 77.2352 29.3182C78.0302 29.6892 78.9842 29.8747 80.0972 29.8747C81.3516 29.8747 82.3762 29.6363 83.1712 29.1593C83.7079 28.8373 84.1319 28.4146 84.4432 27.8912ZM84.1782 23.7003H81.3427C80.3711 23.7003 79.6997 23.8593 79.3287 24.1773C78.9754 24.4953 78.7987 24.8928 78.7987 25.3698C78.7987 25.8998 79.0019 26.3238 79.4082 26.6418C79.8322 26.9421 80.4064 27.0923 81.1307 27.0923C81.8197 27.0923 82.4381 26.9333 82.9857 26.6153C83.5334 26.2796 83.9309 25.7938 84.1782 25.1578V23.7003Z" fill="black"/>
<path d="M52 11.1128V29.6628H65.5944V26.1648H56.2929V11.1128H52Z" fill="black"/>
<defs>
<linearGradient id="paint0_linear_113_1286" x1="10.5682" y1="7.70574" x2="35.9306" y2="28.9436" gradientUnits="userSpaceOnUse">
<stop offset="0.0619804" stop-color="#F6DCD9"/>
<stop offset="0.325677" stop-color="#FFA5EA"/>
<stop offset="0.589257" stop-color="#45DFF8"/>
<stop offset="1" stop-color="#BC8DEB"/>
</linearGradient>
<clipPath id="clip0_113_1286">
<rect width="40" height="40" rx="8" fill="white"/>
</clipPath>
</defs>
</svg>
