<svg viewBox="0 0 111 28" fill="none" stroke="none" xmlns="http://www.w3.org/2000/svg"><path fill="currentColor" d="M27.2801 10.9504C27.101 10.781 27.101 10.5018 27.2801 10.3325C28.2465 9.41996 28.7909 8.36049 28.7909 7.28214C28.7909 3.60551 22.4608 0.618855 14.5568 0.564972C14.4392 0.564972 14.3426 0.660141 14.3426 0.779104V6.65234C14.3426 6.97144 14.0872 7.23105 13.7681 7.23805C8.69963 7.35911 4.30083 8.72578 1.92579 10.6411C0.701177 11.6292 0 12.7761 0 14C0 15.0777 0.544427 16.1371 1.51082 17.0503C1.68996 17.2197 1.68996 17.4989 1.51082 17.6682C0.544427 18.58 0 19.6402 0 20.7179C0 24.3952 6.33019 27.3818 14.2342 27.435C14.3517 27.435 14.4483 27.3399 14.4483 27.2209V21.3477C14.4483 21.0048 14.6757 20.7696 15.0179 20.7619C20.0892 20.6416 24.4894 19.2749 26.8652 17.3589C28.0898 16.3708 28.7909 15.2239 28.7909 14C28.7909 12.9223 28.2465 11.8629 27.2801 10.9497V10.9504ZM26.2556 11.0371C23.7924 12.7047 19.6994 13.8265 15.0473 13.9377C14.689 13.9461 14.4483 13.7103 14.4483 13.3513V7.93083C14.4483 7.60193 14.7177 7.33602 15.0466 7.34442C19.6966 7.45498 23.7812 8.57672 26.2514 10.2429C26.5733 10.4598 26.5768 10.8195 26.2549 11.0364L26.2556 11.0371ZM14.3419 14.6494V20.0699C14.3419 20.4289 14.1019 20.6647 13.7429 20.6563C9.09081 20.5457 4.99781 19.4233 2.53389 17.7557C2.2155 17.5402 2.2155 17.1798 2.53389 16.9643C4.99711 15.2967 9.09011 14.1742 13.7429 14.0637C14.1012 14.0553 14.3419 14.2911 14.3419 14.6501V14.6494Z"></path><path fill="currentColor" d="M40.0225 24.0811H36.737C36.5054 24.0811 36.3171 23.8929 36.3171 23.6613V4.35302C36.3171 4.12139 36.5054 3.93315 36.737 3.93315H43.8237C48.4541 3.93315 51.3442 6.12206 51.3442 10.3032C51.3442 14.4844 48.4541 16.6733 43.8237 16.6733H41.422C40.8811 16.6733 40.4423 17.1121 40.4423 17.653V23.6613C40.4423 23.8929 40.2541 24.0811 40.0225 24.0811ZM43.599 13.1653C46.0126 13.1653 47.247 12.0989 47.247 10.3032C47.247 8.5076 46.0126 7.44114 43.599 7.44114H41.422C40.8811 7.44114 40.4423 7.8799 40.4423 8.42082V12.1856C40.4423 12.7266 40.8811 13.1653 41.422 13.1653H43.599Z"></path><path fill="currentColor" d="M75.0833 12.8226C75.0833 12.9891 74.9392 13.1179 74.7733 13.1011C74.4633 13.0689 74.182 13.0528 73.8202 13.0528C71.772 13.0528 70.2003 14.3159 70.2003 16.5888V23.8014C70.2003 23.9561 70.075 24.0813 69.9204 24.0813H66.5516C66.397 24.0813 66.2717 23.9561 66.2717 23.8014V9.60082C66.2717 9.44617 66.397 9.32091 66.5516 9.32091H69.9204C70.075 9.32091 70.2003 9.44617 70.2003 9.60082V10.132C70.2003 10.5049 70.6467 10.689 70.9155 10.4301C71.6831 9.69109 72.8104 9.23624 74.1288 9.23624C74.4038 9.23624 74.6243 9.25023 74.8272 9.26773C74.9721 9.28032 75.0826 9.40138 75.0826 9.54694V12.8226H75.0833Z"></path><path fill="currentColor" d="M79.7705 24.0811H76.4017C76.2471 24.0811 76.1218 23.9559 76.1218 23.8012V4.21306C76.1218 4.05841 76.2471 3.93315 76.4017 3.93315H79.7705C79.9251 3.93315 80.0504 4.05841 80.0504 4.21306V23.8012C80.0504 23.9559 79.9251 24.0811 79.7705 24.0811Z"></path><path fill="currentColor" d="M88.3844 24.3845C84.1193 24.3845 81.1445 21.2978 81.1445 16.696C81.1445 12.0943 84.1193 9.03558 88.3844 9.03558C92.6496 9.03558 95.6243 12.1223 95.6243 16.696C95.6243 21.2698 92.6496 24.3845 88.3844 24.3845ZM88.3844 21.1291C90.4327 21.1291 91.6958 19.5015 91.6958 16.6953C91.6958 13.8892 90.4334 12.2895 88.3844 12.2895C86.3355 12.2895 85.0451 13.9172 85.0451 16.6953C85.0451 19.4735 86.3362 21.1291 88.3844 21.1291Z"></path><path fill="currentColor" d="M63.9715 20.2033V14.1706C63.9715 10.7472 61.7266 9.03558 57.9947 9.03558C54.9024 9.03558 52.7919 10.6066 51.8744 12.6898C51.8031 12.8508 51.9017 13.0369 52.0739 13.0733L55.2229 13.743C55.3516 13.7703 55.4797 13.7031 55.5364 13.5841C55.9464 12.7171 56.6686 12.2909 57.854 12.2909C59.2354 12.2909 59.9093 12.8564 60.0814 13.7997C60.1416 14.2937 59.9737 14.5897 59.3292 14.7164L56.451 15.2657C53.4762 15.7989 51.1194 17.0333 51.1194 19.9801C51.1194 22.5896 53.2523 24.3299 56.1424 24.3299C57.8023 24.3299 59.1318 23.8968 60.0786 23.1193C60.3082 22.9311 60.6518 22.9591 60.847 23.183C61.5846 24.029 62.9253 24.3642 64.9323 24.1109C65.0722 24.0934 65.1779 23.9737 65.1779 23.8331V21.4349C65.1779 21.2775 65.0478 21.1508 64.8903 21.1557C64.2325 21.176 63.9708 20.8982 63.9708 20.2054L63.9715 20.2033ZM60.1269 18.8283C60.1269 20.4839 58.5832 21.3538 56.9282 21.3538C55.7498 21.3538 54.992 20.7646 54.992 19.7541C54.992 18.5756 55.9457 18.1544 57.2368 17.9018L59.4558 17.4497C59.8029 17.379 60.1276 17.6442 60.1276 17.9983V18.8283H60.1269Z"></path><path fill="currentColor" d="M108.868 20.2033V14.1706C108.868 10.7472 106.624 9.03558 102.892 9.03558C99.7994 9.03558 97.6888 10.6066 96.7714 12.6898C96.7 12.8508 96.7987 13.0369 96.9709 13.0733L100.12 13.743C100.249 13.7703 100.377 13.7031 100.433 13.5841C100.843 12.7171 101.566 12.2909 102.751 12.2909C104.132 12.2909 104.806 12.8564 104.978 13.7997C105.039 14.2937 104.871 14.5897 104.226 14.7164L101.348 15.2657C98.3732 15.7989 96.0164 17.0333 96.0164 19.9801C96.0164 22.5896 98.1493 24.3299 101.039 24.3299C102.699 24.3299 104.029 23.8968 104.976 23.1193C105.205 22.9311 105.549 22.9591 105.744 23.183C106.482 24.029 107.822 24.3642 109.829 24.1109C109.969 24.0934 110.075 23.9737 110.075 23.8331V21.4349C110.075 21.2775 109.945 21.1508 109.787 21.1557C109.129 21.176 108.868 20.8982 108.868 20.2054L108.868 20.2033ZM105.025 18.8283C105.025 20.4839 103.481 21.3538 101.826 21.3538C100.647 21.3538 99.8896 20.7646 99.8896 19.7541C99.8896 18.5756 100.843 18.1544 102.135 17.9018L104.354 17.4497C104.701 17.379 105.025 17.6442 105.025 17.9983V18.8283H105.025Z"></path></svg>