<svg xmlns="http://www.w3.org/2000/svg" xmlns:xlink="http://www.w3.org/1999/xlink" viewBox="0 0 118.448 20.001" overflow="visible"><path d="M 16.048 9.564 C 16.701 9.564 17.231 10.096 17.231 10.752 L 17.231 18.813 C 17.231 19.469 16.701 20 16.048 20 L 1.183 20 C 0.53 20 0 19.468 0 18.813 L 0 10.752 C 0 10.096 0.53 9.565 1.183 9.565 L 16.048 9.565 Z M 36.289 0 C 37.641 0 38.815 0.266 39.815 0.796 C 40.833 1.328 41.617 2.075 42.165 3.039 C 42.733 3.982 43.018 5.094 43.018 6.371 C 43.018 7.296 42.861 8.151 42.547 8.938 C 42.262 9.691 41.822 10.374 41.255 10.944 C 40.707 11.514 40.03 11.956 39.227 12.271 C 38.444 12.586 37.562 12.744 36.583 12.744 L 31.793 12.744 C 31.518 12.744 31.295 12.967 31.295 13.244 L 31.295 20.001 L 28.151 20.001 L 28.151 0.5 C 28.151 0.224 28.374 0 28.649 0 Z M 83.049 4.129 C 84.361 4.129 85.527 4.386 86.545 4.897 C 87.56 5.369 88.425 6.114 89.043 7.05 C 89.626 7.91 89.971 8.923 90.08 10.089 C 90.086 10.157 90.063 10.225 90.016 10.275 C 89.969 10.326 89.904 10.354 89.835 10.354 L 87.4 10.354 C 87.135 10.354 86.92 10.145 86.881 9.882 C 86.75 8.989 86.384 8.291 85.782 7.788 C 85.095 7.198 84.185 6.902 83.049 6.902 C 82.168 6.902 81.423 7.109 80.816 7.521 C 80.209 7.915 79.739 8.496 79.406 9.263 C 79.092 10.01 78.936 10.934 78.936 12.036 C 78.936 13.687 79.299 14.965 80.023 15.87 C 80.748 16.774 81.756 17.227 83.049 17.227 C 84.165 17.227 85.076 16.961 85.782 16.431 C 86.377 15.966 86.742 15.326 86.876 14.511 C 86.92 14.249 87.134 14.041 87.398 14.041 L 89.829 14.041 C 89.975 14.041 90.091 14.167 90.074 14.312 C 89.871 16.051 89.155 17.426 87.926 18.436 C 86.634 19.479 85.008 20.001 83.049 20.001 C 81.599 20.001 80.326 19.675 79.23 19.026 C 78.133 18.358 77.271 17.424 76.644 16.224 C 76.037 15.024 75.733 13.629 75.733 12.036 C 75.733 10.443 76.037 9.056 76.644 7.876 C 77.271 6.696 78.133 5.781 79.23 5.133 C 80.326 4.464 81.599 4.129 83.049 4.129 Z M 105.638 0.001 C 105.849 0.001 106.037 0.134 106.108 0.334 L 113.012 20 L 109.692 20 L 108.003 14.956 L 100.417 14.956 L 98.764 20 L 95.414 20 L 102.318 0.334 C 102.389 0.134 102.577 0 102.788 0 L 105.638 0 Z M 118.448 20.001 L 115.305 20.001 L 115.305 0.5 C 115.305 0.224 115.527 0 115.802 0 L 118.448 0 L 118.448 20 Z M 51.073 4.246 C 52.503 4.246 53.766 4.581 54.863 5.25 C 55.96 5.899 56.821 6.804 57.448 7.964 C 58.095 9.104 58.418 10.422 58.418 11.917 L 58.418 12.36 C 58.418 12.493 58.366 12.62 58.272 12.714 C 58.179 12.808 58.052 12.861 57.92 12.861 L 47.079 12.861 C 47.177 14.172 47.518 15.205 48.106 15.958 C 48.83 16.862 49.888 17.315 51.279 17.315 C 52.316 17.315 53.14 17.079 53.747 16.608 C 54.252 16.236 54.627 15.713 54.819 15.115 C 54.892 14.889 55.093 14.719 55.33 14.719 L 57.916 14.719 C 57.989 14.718 58.059 14.751 58.106 14.807 C 58.153 14.864 58.172 14.939 58.157 15.011 C 57.831 16.559 57.115 17.75 56.009 18.583 C 54.833 19.449 53.248 19.881 51.25 19.881 C 49.741 19.881 48.429 19.566 47.313 18.937 C 46.216 18.288 45.364 17.384 44.757 16.224 C 44.15 15.044 43.846 13.647 43.846 12.035 C 43.846 10.422 44.139 9.035 44.727 7.875 C 45.314 6.715 46.147 5.821 47.224 5.191 C 48.321 4.562 49.604 4.246 51.073 4.246 Z M 67.017 4.246 C 68.447 4.246 69.71 4.581 70.807 5.25 C 71.904 5.899 72.766 6.804 73.392 7.964 C 74.039 9.104 74.362 10.422 74.362 11.917 L 74.362 12.36 C 74.363 12.493 74.31 12.62 74.217 12.714 C 74.123 12.808 73.996 12.861 73.863 12.861 L 63.023 12.861 C 63.121 14.172 63.463 15.205 64.049 15.958 C 64.775 16.862 65.832 17.315 67.223 17.315 C 68.261 17.315 69.083 17.079 69.69 16.608 C 70.195 16.236 70.57 15.713 70.762 15.115 C 70.836 14.889 71.037 14.719 71.275 14.719 L 73.861 14.719 C 73.934 14.719 74.003 14.751 74.05 14.808 C 74.096 14.865 74.115 14.94 74.1 15.011 C 73.775 16.559 73.059 17.75 71.953 18.583 C 70.778 19.449 69.191 19.881 67.193 19.881 C 65.685 19.881 64.373 19.566 63.257 18.937 C 62.16 18.288 61.307 17.384 60.7 16.224 C 60.093 15.044 59.789 13.648 59.789 12.036 C 59.789 10.423 60.083 9.036 60.671 7.876 C 61.259 6.716 62.091 5.821 63.169 5.192 C 64.265 4.563 65.548 4.247 67.017 4.247 Z M 104.289 3.866 C 104.271 3.815 104.224 3.78 104.17 3.781 C 104.117 3.781 104.069 3.815 104.052 3.866 L 101.268 12.359 L 107.133 12.359 L 104.289 3.866 Z M 51.103 6.666 C 50.222 6.666 49.476 6.873 48.869 7.285 C 48.282 7.679 47.832 8.269 47.518 9.056 C 47.34 9.493 47.214 10.005 47.138 10.589 L 55.069 10.589 C 55.011 9.783 54.804 9.094 54.452 8.524 C 54.1 7.934 53.639 7.481 53.071 7.167 C 52.503 6.833 51.847 6.666 51.103 6.666 Z M 67.047 6.666 C 66.165 6.666 65.421 6.873 64.814 7.285 C 64.226 7.679 63.775 8.269 63.462 9.056 C 63.283 9.493 63.158 10.005 63.081 10.589 L 71.013 10.589 C 70.954 9.783 70.749 9.094 70.396 8.524 C 70.043 7.934 69.583 7.481 69.015 7.167 C 68.447 6.833 67.791 6.666 67.046 6.666 Z M 31.294 9.911 L 35.995 9.911 C 36.798 9.911 37.484 9.773 38.052 9.498 C 38.62 9.203 39.051 8.799 39.344 8.289 C 39.657 7.757 39.814 7.118 39.814 6.371 C 39.814 5.23 39.472 4.345 38.786 3.716 C 38.121 3.087 37.19 2.772 35.996 2.772 L 31.295 2.772 L 31.295 9.911 Z M 19.496 0 C 20.148 0 20.677 0.532 20.677 1.187 L 20.677 5.769 C 20.678 6.084 20.553 6.386 20.332 6.609 C 20.11 6.831 19.809 6.956 19.496 6.956 L 4.629 6.956 C 3.976 6.956 3.446 6.425 3.446 5.769 L 3.446 1.187 C 3.446 0.531 3.976 0 4.629 0 L 19.495 0 Z" fill="white"></path></svg>
