<svg width="708" height="200" viewBox="0 0 708 200" fill="none" xmlns="http://www.w3.org/2000/svg">
<g clip-path="url(#clip0_190_88)">
<path fill-rule="evenodd" clip-rule="evenodd" d="M140.701 59.451L108.994 59.451C81.6322 59.451 59.4512 81.632 59.4512 108.994L59.4512 140.701H4.15791e-06L0 108.994C-7.89371e-06 48.7981 48.7982 1.20516e-05 108.994 4.1579e-06L140.701 0L140.701 59.451ZM59.4511 140.701L91.1584 140.701C118.52 140.701 140.701 118.52 140.701 91.1586V59.4514L200.152 59.4514V91.1586C200.152 151.354 151.354 200.152 91.1585 200.152H59.4511L59.4511 140.701ZM266.368 172.965V148.065L343.904 49.1402H270.133V24.0486H377.217V48.9485L299.681 147.873H379.309V172.965H266.368ZM502.383 122.556H419.266C420.275 131.446 423.565 138.825 428.662 144.041C434.004 149.507 441.412 152.684 450.514 152.684C462.817 152.684 471.907 146.679 475.475 136.172L475.763 135.324H502.295L501.931 136.863C499.047 149.038 492.835 158.868 483.955 165.649C475.079 172.427 463.611 176.102 450.305 176.102C433.053 176.102 418.446 169.92 408.151 159.357C397.86 148.798 391.952 133.937 391.952 116.704C391.952 98.1217 398.063 82.9975 408.2 72.5115C418.337 62.0261 432.423 56.2598 448.213 56.2598C464.207 56.2598 477.628 61.8664 487.121 72.1398C496.604 82.4015 502.065 97.2052 502.383 115.427L502.383 115.449V122.556ZM420.54 102.694H474.067C472.441 95.641 469.424 90.0361 465.29 86.1346C460.884 81.976 455.132 79.678 448.213 79.678C434.724 79.678 424.512 88.1909 420.54 102.694ZM608.589 71.9098C619.025 61.7421 633.577 56.2598 650.066 56.2598C668.257 56.2598 682.772 62.6516 692.733 73.2839C702.683 83.9049 708 98.6598 708 115.24C708 134.228 702.001 149.466 691.693 159.962C681.385 170.458 666.875 176.102 650.066 176.102C631.767 176.102 617.195 169.656 607.206 158.754C597.229 147.866 591.922 132.641 591.922 115.24C591.922 96.8542 598.146 82.0837 608.589 71.9098ZM672.124 89.5163C666.886 83.4059 659.346 79.8872 650.066 79.8872C640.784 79.8872 633.189 83.407 627.899 89.5208C622.594 95.6519 619.523 104.49 619.523 115.24C619.523 127.143 622.857 136.452 628.293 142.765C633.717 149.064 641.313 152.475 650.066 152.475C659.622 152.475 667.155 148.569 672.327 142.022C677.524 135.445 680.398 126.119 680.398 115.24C680.398 104.485 677.378 95.6459 672.124 89.5163ZM546.322 172.965H519.138V59.6066H541.354L543.903 78.5439C547.381 72.5159 551.938 67.7641 557.551 64.3872C564.213 60.3789 572.29 58.3516 581.674 58.3516H587.109V84.9073H581.674C570.384 84.9073 561.567 87.9337 555.585 93.3672C549.62 98.786 546.322 106.737 546.322 116.913V172.965ZM476.64 136.633L476.66 136.574C476.643 136.625 476.625 136.675 476.608 136.725C476.619 136.694 476.629 136.664 476.64 136.633Z" fill="white"></path>
</g>
<defs>
<clipPath id="clip0_190_88">
<rect width="707.907" height="200" fill="white"></rect>
</clipPath>
</defs>
</svg>
